<svg width="129" height="40" viewBox="0 0 129 40" fill="none" xmlns="http://www.w3.org/2000/svg"><g clip-path="url(#clip0_80_119343)"><path d="M14.5887 17.717H27.0693V9.72998H30.6228V29.2763H27.0693V21.2892H14.5887V29.2763H11.0352V9.72998H14.5887V17.717Z" fill="#0F306F"></path><path d="M48.319 29.2763H43.2632L35.2822 21.2892H32.7832V17.6882H35.2822L43.2776 9.72998H48.3334L38.2796 19.5031L48.319 29.2763Z" fill="#50C8ED"></path><path d="M69.3864 23.5218C69.3929 24.163 69.3028 24.8015 69.1192 25.416C68.9494 25.9396 68.7063 26.4367 68.3969 26.8924C68.1145 27.3064 67.7684 27.6734 67.3713 27.9799C66.9916 28.2631 66.5824 28.5046 66.1507 28.7001C65.7415 28.8865 65.3127 29.0267 64.8723 29.1178C64.4714 29.2065 64.0623 29.2524 63.6517 29.2546H49.9288V25.7329H63.6517C63.9438 25.7503 64.2363 25.706 64.5101 25.603C64.7839 25.5 65.0329 25.3406 65.2406 25.1351C65.6347 24.6922 65.8394 24.1132 65.8112 23.5218C65.8144 23.2175 65.763 22.9151 65.6595 22.6288C65.5651 22.3621 65.4177 22.1172 65.2262 21.9086C65.0351 21.7088 64.8037 21.5517 64.5473 21.4477C64.262 21.3362 63.958 21.28 63.6517 21.282H55.4974C54.8671 21.2727 54.2417 21.1708 53.6412 20.9795C52.9649 20.7685 52.335 20.4313 51.785 19.9857C51.182 19.5019 50.6896 18.8954 50.3405 18.2068C49.9638 17.3604 49.7906 16.4381 49.8349 15.5132C49.806 14.5835 49.9991 13.6603 50.3983 12.8196C50.751 12.1313 51.2429 11.5232 51.8428 11.0335C52.3909 10.5852 53.0214 10.2477 53.699 10.0397C54.2991 9.84629 54.9246 9.74195 55.5552 9.72998H67.5952V13.2734H55.4974C55.2047 13.2584 54.9122 13.3059 54.6394 13.4127C54.3667 13.5195 54.1199 13.6832 53.9156 13.8927C53.5245 14.3398 53.3225 14.9207 53.3523 15.5132C53.3206 16.1038 53.5229 16.6832 53.9156 17.1265C54.1237 17.329 54.3719 17.4861 54.6442 17.5878C54.9165 17.6894 55.2071 17.7335 55.4974 17.717H63.7022C64.1106 17.7335 64.5167 17.7866 64.9156 17.8755C65.3573 17.9757 65.7861 18.1255 66.194 18.322C66.6262 18.5123 67.0336 18.7541 67.4074 19.0422C67.7991 19.364 68.14 19.7427 68.4186 20.1657C68.7296 20.6075 68.973 21.0929 69.1408 21.6061C69.3208 22.2283 69.4036 22.8745 69.3864 23.5218Z" fill="#0F306F"></path><path d="M5.77806 37.1192C5.01184 37.1192 4.277 36.8157 3.7352 36.2754C3.19341 35.7352 2.88903 35.0024 2.88903 34.2384V5.76161C2.88903 4.99758 3.19341 4.26483 3.7352 3.72458C4.277 3.18432 5.01184 2.88081 5.77806 2.88081H50.3413L53.2303 0H5.77806C4.24562 0 2.77595 0.607026 1.69235 1.68754C0.608758 2.76805 0 4.23354 0 5.76161L0 34.2384C0 35.7665 0.608758 37.232 1.69235 38.3125C2.77595 39.393 4.24562 40 5.77806 40H53.7143L50.8252 37.1192H5.77806Z" fill="#0F306F"></path><path d="M73.9383 0H58.2654L55.2969 2.88081H73.9383C74.7045 2.88081 75.4394 3.18432 75.9812 3.72458C76.523 4.26483 76.8274 4.99758 76.8274 5.76161V34.2384C76.8274 35.0024 76.523 35.7352 75.9812 36.2754C75.4394 36.8157 74.7045 37.1192 73.9383 37.1192H55.788L58.7565 40H73.9239C75.4563 40 76.926 39.393 78.0096 38.3125C79.0932 37.232 79.7019 35.7665 79.7019 34.2384V5.76161C79.7019 4.23603 79.0952 2.77272 78.0147 1.69262C76.9342 0.612523 75.4683 0.00381396 73.9383 0V0Z" fill="#0F306F"></path><path d="M94.6235 16.5566C94.6235 16.7441 94.5903 16.9453 94.5239 17.1602C94.4614 17.375 94.356 17.5742 94.2075 17.7578C94.063 17.9414 93.8735 18.0957 93.6392 18.2207C93.4048 18.3418 93.1177 18.4023 92.7778 18.4023H86.9946C86.8853 18.4023 86.7837 18.3828 86.6899 18.3438C86.5962 18.3047 86.5142 18.252 86.4438 18.1855C86.3774 18.1152 86.3247 18.0332 86.2856 17.9395C86.2466 17.8457 86.2271 17.7441 86.2271 17.6348V10.7676C86.2271 10.6621 86.2466 10.5625 86.2856 10.4688C86.3247 10.375 86.3774 10.293 86.4438 10.2227C86.5142 10.1523 86.5962 10.0977 86.6899 10.0586C86.7837 10.0195 86.8853 10 86.9946 10H92.0923C92.2798 10 92.481 10.0332 92.6958 10.0996C92.9106 10.166 93.1099 10.2734 93.2935 10.4219C93.481 10.5664 93.6353 10.7559 93.7563 10.9902C93.8813 11.2246 93.9438 11.5117 93.9438 11.8516V12.1387C93.9438 12.4082 93.8989 12.6992 93.8091 13.0117C93.7192 13.3203 93.5747 13.6133 93.3755 13.8906C93.5474 13.9961 93.7075 14.123 93.856 14.2715C94.0083 14.4199 94.1411 14.5918 94.2544 14.7871C94.3677 14.9824 94.4575 15.2031 94.5239 15.4492C94.5903 15.6953 94.6235 15.9668 94.6235 16.2637V16.5566ZM93.1001 16.2637C93.1001 16.0645 93.0688 15.8867 93.0063 15.7305C92.9438 15.5703 92.856 15.4336 92.7427 15.3203C92.6294 15.207 92.4927 15.1211 92.3325 15.0625C92.1724 15 91.9927 14.9688 91.7935 14.9688H88.3599V13.4336H91.1079C91.3071 13.4336 91.4868 13.4043 91.647 13.3457C91.8071 13.2832 91.9438 13.1953 92.0571 13.082C92.1704 12.9688 92.2563 12.834 92.3149 12.6777C92.3774 12.5176 92.4087 12.3379 92.4087 12.1387V11.8516C92.4087 11.6328 92.3032 11.5234 92.0923 11.5234H87.7505V16.8789H92.7778C92.8052 16.8789 92.8384 16.877 92.8774 16.873C92.9165 16.8691 92.9517 16.8574 92.9829 16.8379C93.0142 16.8184 93.0415 16.7852 93.0649 16.7383C93.0884 16.6914 93.1001 16.627 93.1001 16.5449V16.2637Z" fill="#0F306E"></path><path d="M103.407 18.4023H95.6899V15.584C95.6899 15.4395 95.7056 15.2871 95.7368 15.127C95.772 14.9629 95.8247 14.8008 95.895 14.6406C95.9653 14.4805 96.0552 14.3281 96.1646 14.1836C96.2778 14.0391 96.4126 13.9121 96.5688 13.8027C96.729 13.6895 96.9126 13.5996 97.1196 13.5332C97.3267 13.4668 97.561 13.4336 97.8228 13.4336H101.256C101.463 13.4336 101.616 13.3828 101.713 13.2812C101.815 13.1758 101.866 13.0234 101.866 12.8242V12.1504C101.866 11.9434 101.815 11.7871 101.713 11.6816C101.612 11.5762 101.463 11.5234 101.268 11.5234H96.3755V10H101.268C101.526 10 101.758 10.0332 101.965 10.0996C102.172 10.166 102.354 10.2559 102.51 10.3691C102.67 10.4785 102.807 10.6055 102.92 10.75C103.034 10.8945 103.125 11.0469 103.196 11.207C103.27 11.3633 103.323 11.5234 103.354 11.6875C103.389 11.8477 103.407 11.998 103.407 12.1387V12.8242C103.407 13.2188 103.334 13.5527 103.19 13.8262C103.049 14.0957 102.872 14.3164 102.657 14.4883C102.442 14.6562 102.209 14.7793 101.959 14.8574C101.713 14.9316 101.483 14.9688 101.268 14.9688H97.8228C97.6978 14.9688 97.5981 14.9863 97.5239 15.0215C97.4497 15.0566 97.3911 15.1035 97.3481 15.1621C97.3091 15.2207 97.2798 15.2871 97.2603 15.3613C97.2407 15.4355 97.2251 15.5098 97.2134 15.584V16.8789H103.407V18.4023Z" fill="#0F306E"></path><path d="M113.374 16.5566C113.374 16.7441 113.34 16.9453 113.274 17.1602C113.211 17.375 113.106 17.5742 112.958 17.7578C112.813 17.9414 112.624 18.0957 112.389 18.2207C112.155 18.3418 111.868 18.4023 111.528 18.4023H105.745C105.635 18.4023 105.534 18.3828 105.44 18.3438C105.346 18.3047 105.264 18.252 105.194 18.1855C105.127 18.1152 105.075 18.0332 105.036 17.9395C104.997 17.8457 104.977 17.7441 104.977 17.6348V10.7676C104.977 10.6621 104.997 10.5625 105.036 10.4688C105.075 10.375 105.127 10.293 105.194 10.2227C105.264 10.1523 105.346 10.0977 105.44 10.0586C105.534 10.0195 105.635 10 105.745 10H110.842C111.03 10 111.231 10.0332 111.446 10.0996C111.661 10.166 111.86 10.2734 112.043 10.4219C112.231 10.5664 112.385 10.7559 112.506 10.9902C112.631 11.2246 112.694 11.5117 112.694 11.8516V12.1387C112.694 12.4082 112.649 12.6992 112.559 13.0117C112.469 13.3203 112.325 13.6133 112.125 13.8906C112.297 13.9961 112.458 14.123 112.606 14.2715C112.758 14.4199 112.891 14.5918 113.004 14.7871C113.118 14.9824 113.208 15.2031 113.274 15.4492C113.34 15.6953 113.374 15.9668 113.374 16.2637V16.5566ZM111.85 16.2637C111.85 16.0645 111.819 15.8867 111.756 15.7305C111.694 15.5703 111.606 15.4336 111.493 15.3203C111.379 15.207 111.243 15.1211 111.083 15.0625C110.922 15 110.743 14.9688 110.543 14.9688H107.11V13.4336H109.858C110.057 13.4336 110.237 13.4043 110.397 13.3457C110.557 13.2832 110.694 13.1953 110.807 13.082C110.92 12.9688 111.006 12.834 111.065 12.6777C111.127 12.5176 111.159 12.3379 111.159 12.1387V11.8516C111.159 11.6328 111.053 11.5234 110.842 11.5234H106.5V16.8789H111.528C111.555 16.8789 111.588 16.877 111.627 16.873C111.667 16.8691 111.702 16.8574 111.733 16.8379C111.764 16.8184 111.792 16.7852 111.815 16.7383C111.838 16.6914 111.85 16.627 111.85 16.5449V16.2637Z" fill="#0F306E"></path><path d="M92.2974 25.7373C92.2974 25.998 92.2651 26.231 92.2007 26.436C92.1362 26.6411 92.0483 26.8228 91.937 26.981C91.8286 27.1362 91.7026 27.2695 91.5591 27.3809C91.4155 27.4922 91.2646 27.583 91.1064 27.6533C90.9512 27.7236 90.793 27.7749 90.6318 27.8071C90.4736 27.8394 90.3242 27.8555 90.1836 27.8555H87.5996V26.7129H90.1836C90.3301 26.7012 90.4619 26.6719 90.5791 26.625C90.6992 26.5752 90.8018 26.5093 90.8867 26.4272C90.9717 26.3452 91.0376 26.2471 91.0845 26.1328C91.1313 26.0156 91.1548 25.8838 91.1548 25.7373V25.2188C91.1401 25.0752 91.1094 24.9434 91.0625 24.8232C91.0156 24.7031 90.9512 24.6006 90.8691 24.5156C90.79 24.4307 90.6934 24.3647 90.5791 24.3179C90.4648 24.2681 90.333 24.2432 90.1836 24.2432H87.6084C87.4561 24.2432 87.3403 24.2827 87.2612 24.3618C87.1821 24.4409 87.1426 24.5552 87.1426 24.7046V29.4023H86V24.7046C86 24.4116 86.0527 24.1626 86.1582 23.9575C86.2666 23.7524 86.3999 23.5869 86.5581 23.4609C86.7192 23.335 86.8936 23.2441 87.0811 23.1885C87.2686 23.1299 87.4414 23.1006 87.5996 23.1006H90.1836C90.4414 23.1006 90.6729 23.1343 90.8779 23.2017C91.083 23.2661 91.2632 23.354 91.4185 23.4653C91.5767 23.5737 91.71 23.6997 91.8184 23.8433C91.9297 23.9868 92.0205 24.1377 92.0908 24.2959C92.1641 24.4512 92.2168 24.6094 92.249 24.7705C92.2812 24.9287 92.2974 25.0781 92.2974 25.2188V25.7373Z" fill="#0F306E"></path><path d="M99.8911 26.8535C99.8911 27.2373 99.8252 27.5903 99.6934 27.9126C99.5615 28.2349 99.3784 28.5132 99.144 28.7476C98.9097 28.9819 98.6313 29.165 98.3091 29.2969C97.9897 29.4258 97.6411 29.4902 97.2632 29.4902H95.7163C95.3384 29.4902 94.9883 29.4258 94.666 29.2969C94.3438 29.165 94.0654 28.9819 93.8311 28.7476C93.5967 28.5132 93.4121 28.2349 93.2773 27.9126C93.1455 27.5903 93.0796 27.2373 93.0796 26.8535V25.6494C93.0796 25.2686 93.1455 24.917 93.2773 24.5947C93.4121 24.2695 93.5967 23.9912 93.8311 23.7598C94.0654 23.5254 94.3438 23.3423 94.666 23.2104C94.9883 23.0786 95.3384 23.0127 95.7163 23.0127H97.2632C97.6411 23.0127 97.9897 23.0786 98.3091 23.2104C98.6313 23.3423 98.9097 23.5254 99.144 23.7598C99.3784 23.9912 99.5615 24.2695 99.6934 24.5947C99.8252 24.917 99.8911 25.2686 99.8911 25.6494V26.8535ZM98.7485 25.6494C98.7485 25.4238 98.7119 25.2202 98.6387 25.0386C98.5684 24.854 98.4673 24.6973 98.3354 24.5684C98.2065 24.4365 98.0498 24.3354 97.8652 24.2651C97.6836 24.1919 97.4829 24.1553 97.2632 24.1553H95.7163C95.4937 24.1553 95.29 24.1919 95.1055 24.2651C94.9238 24.3354 94.7671 24.4365 94.6353 24.5684C94.5034 24.6973 94.4009 24.854 94.3276 25.0386C94.2573 25.2202 94.2222 25.4238 94.2222 25.6494V26.8535C94.2222 27.0791 94.2573 27.2842 94.3276 27.4688C94.4009 27.6504 94.5034 27.8071 94.6353 27.939C94.7671 28.0679 94.9238 28.1689 95.1055 28.2422C95.29 28.3125 95.4937 28.3477 95.7163 28.3477H97.2544C97.4771 28.3477 97.6792 28.3125 97.8608 28.2422C98.0454 28.1689 98.2036 28.0679 98.3354 27.939C98.4673 27.8071 98.5684 27.6504 98.6387 27.4688C98.7119 27.2842 98.7485 27.0791 98.7485 26.8535V25.6494Z" fill="#0F306E"></path><path d="M107.318 25.2188C107.318 25.4795 107.286 25.7124 107.221 25.9175C107.157 26.1226 107.069 26.3042 106.958 26.4624C106.849 26.6177 106.723 26.751 106.58 26.8623C106.436 26.9736 106.285 27.0659 106.127 27.1392C105.972 27.2095 105.813 27.2607 105.652 27.293C105.494 27.3252 105.345 27.3413 105.204 27.3413L107.59 29.4023H105.824L103.442 27.3413H102.62V26.1987H105.204C105.348 26.187 105.478 26.1577 105.595 26.1108C105.715 26.061 105.818 25.9951 105.903 25.9131C105.991 25.8311 106.058 25.7329 106.105 25.6187C106.152 25.5015 106.175 25.3682 106.175 25.2188V24.498C106.175 24.4336 106.167 24.3853 106.149 24.353C106.134 24.3179 106.114 24.293 106.087 24.2783C106.064 24.2607 106.038 24.2505 106.008 24.2476C105.982 24.2446 105.957 24.2432 105.934 24.2432H102.163V29.4023H101.021V23.6763C101.021 23.5972 101.035 23.5225 101.064 23.4521C101.094 23.3818 101.133 23.3203 101.183 23.2676C101.236 23.2148 101.297 23.1738 101.368 23.1445C101.438 23.1152 101.514 23.1006 101.596 23.1006H105.934C106.188 23.1006 106.404 23.1475 106.58 23.2412C106.755 23.332 106.897 23.4478 107.006 23.5884C107.117 23.7261 107.196 23.8755 107.243 24.0366C107.293 24.1978 107.318 24.3486 107.318 24.4893V25.2188Z" fill="#0F306E"></path><path d="M114.107 24.2432H111.589V29.4023H110.447V24.2432H107.924V23.1006H114.107V24.2432Z" fill="#0F306E"></path><path d="M120.915 29.4023H119.772V27.8555H115.755V29.4023H114.613V26.2515C114.613 25.7915 114.692 25.3682 114.85 24.9814C115.008 24.5947 115.228 24.2622 115.509 23.9839C115.791 23.7056 116.123 23.4888 116.507 23.3335C116.891 23.1782 117.31 23.1006 117.764 23.1006H120.339C120.418 23.1006 120.493 23.1152 120.563 23.1445C120.633 23.1738 120.695 23.2148 120.748 23.2676C120.8 23.3203 120.841 23.3818 120.871 23.4521C120.9 23.5225 120.915 23.5972 120.915 23.6763V29.4023ZM115.755 26.7129H119.772V24.2432H117.764C117.729 24.2432 117.654 24.249 117.54 24.2607C117.428 24.2695 117.298 24.2944 117.148 24.3354C117.002 24.3765 116.847 24.4395 116.683 24.5244C116.519 24.6094 116.368 24.7266 116.23 24.876C116.092 25.0254 115.978 25.2129 115.887 25.4385C115.799 25.6611 115.755 25.9321 115.755 26.2515V26.7129Z" fill="#0F306E"></path><path d="M128.034 29.4023H122.822C122.74 29.4023 122.664 29.3877 122.593 29.3584C122.523 29.3291 122.461 29.2896 122.409 29.2397C122.359 29.187 122.319 29.1255 122.29 29.0552C122.261 28.9849 122.246 28.9087 122.246 28.8267V23.1006H123.389V28.2598H128.034V29.4023Z" fill="#0F306E"></path></g><defs><clipPath id="clip0_80_119343"><rect width="129" height="40" fill="white"></rect></clipPath></defs></svg>