<svg width="142" height="80" viewBox="0 0 142 80" fill="none" xmlns="http://www.w3.org/2000/svg">
<mask id="mask0_189_10409" style="mask-type:luminance" maskUnits="userSpaceOnUse" x="12" y="20" width="130" height="40">
<path d="M141.5 20H12.5V60H141.5V20Z" fill="white"/>
</mask>
<g mask="url(#mask0_189_10409)">
<path d="M27.0896 37.717H39.5702V29.73H43.1237V49.2763H39.5702V41.2892H27.0896V49.2763H23.5361V29.73H27.0896V37.717Z" fill="white"/>
<path d="M60.819 49.2763H55.7632L47.7822 41.2892H45.2832V37.6882H47.7822L55.7776 29.73H60.8334L50.7796 39.5031L60.819 49.2763Z" fill="#50C8ED"/>
<path d="M81.8874 43.5218C81.8939 44.163 81.8038 44.8015 81.6201 45.416C81.4504 45.9396 81.2073 46.4367 80.8979 46.8924C80.6155 47.3064 80.2694 47.6734 79.8723 47.9799C79.4926 48.2631 79.0834 48.5046 78.6517 48.7001C78.2425 48.8865 77.8137 49.0267 77.3733 49.1178C76.9724 49.2065 76.5632 49.2524 76.1526 49.2546H62.4298V45.7329H76.1526C76.4448 45.7503 76.7373 45.706 77.0111 45.603C77.2849 45.5 77.5338 45.3406 77.7416 45.1351C78.1356 44.6922 78.3404 44.1132 78.3122 43.5218C78.3153 43.2175 78.264 42.9151 78.1605 42.6288C78.0661 42.3621 77.9187 42.1172 77.7272 41.9086C77.5361 41.7088 77.3047 41.5517 77.0482 41.4477C76.763 41.3362 76.459 41.28 76.1526 41.282H67.9984C67.3681 41.2727 66.7426 41.1708 66.1422 40.9795C65.4658 40.7685 64.8359 40.4313 64.286 39.9857C63.683 39.5019 63.1905 38.8954 62.8414 38.2068C62.4648 37.3604 62.2916 36.4381 62.3359 35.5132C62.307 34.5835 62.5001 33.6603 62.8992 32.8196C63.252 32.1313 63.7438 31.5232 64.3437 31.0335C64.8919 30.5852 65.5224 30.2477 66.1999 30.0397C66.8001 29.8463 67.4255 29.7419 68.0561 29.73H80.0962V33.2734H67.9984C67.7057 33.2584 67.4132 33.3059 67.1404 33.4127C66.8676 33.5195 66.6209 33.6832 66.4166 33.8927C66.0254 34.3398 65.8235 34.9207 65.8533 35.5132C65.8215 36.1038 66.0239 36.6832 66.4166 37.1265C66.6247 37.329 66.8728 37.4861 67.1452 37.5878C67.4175 37.6894 67.708 37.7335 67.9984 37.717H76.2032C76.6116 37.7335 77.0177 37.7866 77.4166 37.8755C77.8583 37.9757 78.2871 38.1255 78.695 38.322C79.1271 38.5123 79.5346 38.7541 79.9084 39.0422C80.3001 39.364 80.641 39.7427 80.9195 40.1657C81.2306 40.6075 81.474 41.0929 81.6418 41.6061C81.8218 42.2283 81.9046 42.8745 81.8874 43.5218Z" fill="white"/>
<path d="M18.2781 57.1192C17.5118 57.1192 16.777 56.8157 16.2352 56.2754C15.6934 55.7352 15.389 55.0024 15.389 54.2384V25.7616C15.389 24.9976 15.6934 24.2648 16.2352 23.7246C16.777 23.1843 17.5118 22.8808 18.2781 22.8808H62.8413L65.7303 20H18.2781C16.7456 20 15.2759 20.607 14.1924 21.6875C13.1088 22.768 12.5 24.2335 12.5 25.7616V54.2384C12.5 55.7665 13.1088 57.232 14.1924 58.3125C15.2759 59.393 16.7456 60 18.2781 60H66.2143L63.3252 57.1192H18.2781Z" fill="white"/>
<path d="M86.4374 20H70.7644L67.7959 22.8808H86.4374C87.2036 22.8808 87.9384 23.1843 88.4802 23.7246C89.022 24.2648 89.3264 24.9976 89.3264 25.7616V54.2384C89.3264 55.0024 89.022 55.7352 88.4802 56.2754C87.9384 56.8157 87.2036 57.1192 86.4374 57.1192H68.287L71.2555 60H86.4229C87.9553 60 89.425 59.393 90.5086 58.3125C91.5922 57.232 92.201 55.7665 92.201 54.2384V25.7616C92.201 24.236 91.5942 22.7727 90.5137 21.6926C89.4332 20.6125 87.9673 20.0038 86.4374 20Z" fill="white"/>
<path d="M107.124 36.5566C107.124 36.7441 107.09 36.9453 107.024 37.1602C106.961 37.375 106.856 37.5742 106.708 37.7578C106.563 37.9414 106.374 38.0957 106.139 38.2207C105.905 38.3418 105.618 38.4023 105.278 38.4023H99.4946C99.3853 38.4023 99.2837 38.3828 99.1899 38.3438C99.0962 38.3047 99.0142 38.252 98.9438 38.1855C98.8774 38.1152 98.8247 38.0332 98.7856 37.9395C98.7466 37.8457 98.7271 37.7441 98.7271 37.6348V30.7676C98.7271 30.6621 98.7466 30.5625 98.7856 30.4688C98.8247 30.375 98.8774 30.293 98.9438 30.2227C99.0142 30.1523 99.0962 30.0977 99.1899 30.0586C99.2837 30.0195 99.3853 30 99.4946 30H104.592C104.78 30 104.981 30.0332 105.196 30.0996C105.411 30.166 105.61 30.2734 105.793 30.4219C105.981 30.5664 106.135 30.7559 106.256 30.9902C106.381 31.2246 106.444 31.5117 106.444 31.8516V32.1387C106.444 32.4082 106.399 32.6992 106.309 33.0117C106.219 33.3203 106.075 33.6133 105.875 33.8906C106.047 33.9961 106.208 34.123 106.356 34.2715C106.508 34.4199 106.641 34.5918 106.754 34.7871C106.868 34.9824 106.958 35.2031 107.024 35.4492C107.09 35.6953 107.124 35.9668 107.124 36.2637V36.5566ZM105.6 36.2637C105.6 36.0645 105.569 35.8867 105.506 35.7305C105.444 35.5703 105.356 35.4336 105.243 35.3203C105.129 35.207 104.993 35.1211 104.833 35.0625C104.672 35 104.493 34.9688 104.293 34.9688H100.86V33.4336H103.608C103.807 33.4336 103.987 33.4043 104.147 33.3457C104.307 33.2832 104.444 33.1953 104.557 33.082C104.67 32.9688 104.756 32.834 104.815 32.6777C104.877 32.5176 104.909 32.3379 104.909 32.1387V31.8516C104.909 31.6328 104.803 31.5234 104.592 31.5234H100.25V36.8789H105.278C105.305 36.8789 105.338 36.877 105.377 36.873C105.417 36.8691 105.452 36.8574 105.483 36.8379C105.514 36.8184 105.542 36.7852 105.565 36.7383C105.588 36.6914 105.6 36.627 105.6 36.5449V36.2637Z" fill="white"/>
<path d="M115.907 38.4023H108.19V35.584C108.19 35.4395 108.206 35.2871 108.237 35.127C108.272 34.9629 108.325 34.8008 108.395 34.6406C108.465 34.4805 108.555 34.3281 108.665 34.1836C108.778 34.0391 108.913 33.9121 109.069 33.8027C109.229 33.6895 109.413 33.5996 109.62 33.5332C109.827 33.4668 110.061 33.4336 110.323 33.4336H113.756C113.963 33.4336 114.116 33.3828 114.213 33.2812C114.315 33.1758 114.366 33.0234 114.366 32.8242V32.1504C114.366 31.9434 114.315 31.7871 114.213 31.6816C114.112 31.5762 113.963 31.5234 113.768 31.5234H108.875V30H113.768C114.026 30 114.258 30.0332 114.465 30.0996C114.672 30.166 114.854 30.2559 115.01 30.3691C115.17 30.4785 115.307 30.6055 115.42 30.75C115.534 30.8945 115.625 31.0469 115.696 31.207C115.77 31.3633 115.823 31.5234 115.854 31.6875C115.889 31.8477 115.907 31.998 115.907 32.1387V32.8242C115.907 33.2188 115.834 33.5527 115.69 33.8262C115.549 34.0957 115.372 34.3164 115.157 34.4883C114.942 34.6562 114.709 34.7793 114.459 34.8574C114.213 34.9316 113.983 34.9688 113.768 34.9688H110.323C110.198 34.9688 110.098 34.9863 110.024 35.0215C109.95 35.0566 109.891 35.1035 109.848 35.1621C109.809 35.2207 109.78 35.2871 109.76 35.3613C109.741 35.4355 109.725 35.5098 109.713 35.584V36.8789H115.907V38.4023Z" fill="white"/>
<path d="M125.874 36.5566C125.874 36.7441 125.84 36.9453 125.774 37.1602C125.711 37.375 125.606 37.5742 125.458 37.7578C125.313 37.9414 125.124 38.0957 124.889 38.2207C124.655 38.3418 124.368 38.4023 124.028 38.4023H118.245C118.135 38.4023 118.034 38.3828 117.94 38.3438C117.846 38.3047 117.764 38.252 117.694 38.1855C117.627 38.1152 117.575 38.0332 117.536 37.9395C117.497 37.8457 117.477 37.7441 117.477 37.6348V30.7676C117.477 30.6621 117.497 30.5625 117.536 30.4688C117.575 30.375 117.627 30.293 117.694 30.2227C117.764 30.1523 117.846 30.0977 117.94 30.0586C118.034 30.0195 118.135 30 118.245 30H123.342C123.53 30 123.731 30.0332 123.946 30.0996C124.161 30.166 124.36 30.2734 124.543 30.4219C124.731 30.5664 124.885 30.7559 125.006 30.9902C125.131 31.2246 125.194 31.5117 125.194 31.8516V32.1387C125.194 32.4082 125.149 32.6992 125.059 33.0117C124.969 33.3203 124.825 33.6133 124.625 33.8906C124.797 33.9961 124.958 34.123 125.106 34.2715C125.258 34.4199 125.391 34.5918 125.504 34.7871C125.618 34.9824 125.708 35.2031 125.774 35.4492C125.84 35.6953 125.874 35.9668 125.874 36.2637V36.5566ZM124.35 36.2637C124.35 36.0645 124.319 35.8867 124.256 35.7305C124.194 35.5703 124.106 35.4336 123.993 35.3203C123.879 35.207 123.743 35.1211 123.583 35.0625C123.422 35 123.243 34.9688 123.043 34.9688H119.61V33.4336H122.358C122.557 33.4336 122.737 33.4043 122.897 33.3457C123.057 33.2832 123.194 33.1953 123.307 33.082C123.42 32.9688 123.506 32.834 123.565 32.6777C123.627 32.5176 123.659 32.3379 123.659 32.1387V31.8516C123.659 31.6328 123.553 31.5234 123.342 31.5234H119V36.8789H124.028C124.055 36.8789 124.088 36.877 124.127 36.873C124.167 36.8691 124.202 36.8574 124.233 36.8379C124.264 36.8184 124.292 36.7852 124.315 36.7383C124.338 36.6914 124.35 36.627 124.35 36.5449V36.2637Z" fill="white"/>
<path d="M104.797 45.7373C104.797 45.998 104.765 46.231 104.701 46.436C104.636 46.6411 104.548 46.8228 104.437 46.981C104.329 47.1362 104.203 47.2695 104.059 47.3809C103.916 47.4922 103.765 47.583 103.606 47.6533C103.451 47.7236 103.293 47.7749 103.132 47.8071C102.974 47.8394 102.824 47.8555 102.684 47.8555H100.1V46.7129H102.684C102.83 46.7012 102.962 46.6719 103.079 46.625C103.199 46.5752 103.302 46.5093 103.387 46.4272C103.472 46.3452 103.538 46.2471 103.584 46.1328C103.631 46.0156 103.655 45.8838 103.655 45.7373V45.2188C103.64 45.0752 103.609 44.9434 103.562 44.8232C103.516 44.7031 103.451 44.6006 103.369 44.5156C103.29 44.4307 103.193 44.3647 103.079 44.3179C102.965 44.2681 102.833 44.2432 102.684 44.2432H100.108C99.9561 44.2432 99.8403 44.2827 99.7612 44.3618C99.6821 44.4409 99.6426 44.5552 99.6426 44.7046V49.4023H98.5V44.7046C98.5 44.4116 98.5527 44.1626 98.6582 43.9575C98.7666 43.7524 98.8999 43.5869 99.0581 43.4609C99.2192 43.335 99.3936 43.2441 99.5811 43.1885C99.7686 43.1299 99.9414 43.1006 100.1 43.1006H102.684C102.941 43.1006 103.173 43.1343 103.378 43.2017C103.583 43.2661 103.763 43.354 103.918 43.4653C104.077 43.5737 104.21 43.6997 104.318 43.8433C104.43 43.9868 104.521 44.1377 104.591 44.2959C104.664 44.4512 104.717 44.6094 104.749 44.7705C104.781 44.9287 104.797 45.0781 104.797 45.2188V45.7373Z" fill="white"/>
<path d="M112.391 46.8535C112.391 47.2373 112.325 47.5903 112.193 47.9126C112.062 48.2349 111.878 48.5132 111.644 48.7476C111.41 48.9819 111.131 49.165 110.809 49.2969C110.49 49.4258 110.141 49.4902 109.763 49.4902H108.216C107.838 49.4902 107.488 49.4258 107.166 49.2969C106.844 49.165 106.565 48.9819 106.331 48.7476C106.097 48.5132 105.912 48.2349 105.777 47.9126C105.646 47.5903 105.58 47.2373 105.58 46.8535V45.6494C105.58 45.2686 105.646 44.917 105.777 44.5947C105.912 44.2695 106.097 43.9912 106.331 43.7598C106.565 43.5254 106.844 43.3423 107.166 43.2104C107.488 43.0786 107.838 43.0127 108.216 43.0127H109.763C110.141 43.0127 110.49 43.0786 110.809 43.2104C111.131 43.3423 111.41 43.5254 111.644 43.7598C111.878 43.9912 112.062 44.2695 112.193 44.5947C112.325 44.917 112.391 45.2686 112.391 45.6494V46.8535ZM111.249 45.6494C111.249 45.4238 111.212 45.2202 111.139 45.0386C111.068 44.854 110.967 44.6973 110.835 44.5684C110.707 44.4365 110.55 44.3354 110.365 44.2651C110.184 44.1919 109.983 44.1553 109.763 44.1553H108.216C107.994 44.1553 107.79 44.1919 107.605 44.2651C107.424 44.3354 107.267 44.4365 107.135 44.5684C107.003 44.6973 106.901 44.854 106.828 45.0386C106.757 45.2202 106.722 45.4238 106.722 45.6494V46.8535C106.722 47.0791 106.757 47.2842 106.828 47.4688C106.901 47.6504 107.003 47.8071 107.135 47.939C107.267 48.0679 107.424 48.1689 107.605 48.2422C107.79 48.3125 107.994 48.3477 108.216 48.3477H109.754C109.977 48.3477 110.179 48.3125 110.361 48.2422C110.545 48.1689 110.704 48.0679 110.835 47.939C110.967 47.8071 111.068 47.6504 111.139 47.4688C111.212 47.2842 111.249 47.0791 111.249 46.8535V45.6494Z" fill="white"/>
<path d="M119.818 45.2188C119.818 45.4795 119.786 45.7124 119.721 45.9175C119.657 46.1226 119.569 46.3042 119.458 46.4624C119.349 46.6177 119.223 46.751 119.08 46.8623C118.936 46.9736 118.785 47.0659 118.627 47.1392C118.472 47.2095 118.313 47.2607 118.152 47.293C117.994 47.3252 117.845 47.3413 117.704 47.3413L120.09 49.4023H118.324L115.942 47.3413H115.12V46.1987H117.704C117.848 46.187 117.978 46.1577 118.095 46.1108C118.215 46.061 118.318 45.9951 118.403 45.9131C118.491 45.8311 118.558 45.7329 118.605 45.6187C118.652 45.5015 118.675 45.3682 118.675 45.2188V44.498C118.675 44.4336 118.667 44.3853 118.649 44.353C118.634 44.3179 118.614 44.293 118.587 44.2783C118.564 44.2607 118.538 44.2505 118.508 44.2476C118.482 44.2446 118.457 44.2432 118.434 44.2432H114.663V49.4023H113.521V43.6763C113.521 43.5972 113.535 43.5225 113.564 43.4521C113.594 43.3818 113.633 43.3203 113.683 43.2676C113.736 43.2148 113.797 43.1738 113.868 43.1445C113.938 43.1152 114.014 43.1006 114.096 43.1006H118.434C118.688 43.1006 118.904 43.1475 119.08 43.2412C119.255 43.332 119.397 43.4478 119.506 43.5884C119.617 43.7261 119.696 43.8755 119.743 44.0366C119.793 44.1978 119.818 44.3486 119.818 44.4893V45.2188Z" fill="white"/>
<path d="M126.607 44.2432H124.089V49.4023H122.947V44.2432H120.424V43.1006H126.607V44.2432Z" fill="white"/>
<path d="M133.415 49.4023H132.272V47.8555H128.255V49.4023H127.113V46.2515C127.113 45.7915 127.192 45.3682 127.35 44.9814C127.508 44.5947 127.728 44.2622 128.009 43.9839C128.291 43.7056 128.623 43.4888 129.007 43.3335C129.391 43.1782 129.81 43.1006 130.264 43.1006H132.839C132.918 43.1006 132.993 43.1152 133.063 43.1445C133.133 43.1738 133.195 43.2148 133.248 43.2676C133.3 43.3203 133.341 43.3818 133.371 43.4521C133.4 43.5225 133.415 43.5972 133.415 43.6763V49.4023ZM128.255 46.7129H132.272V44.2432H130.264C130.229 44.2432 130.154 44.249 130.04 44.2607C129.928 44.2695 129.798 44.2944 129.648 44.3354C129.502 44.3765 129.347 44.4395 129.183 44.5244C129.019 44.6094 128.868 44.7266 128.73 44.876C128.592 45.0254 128.478 45.2129 128.387 45.4385C128.299 45.6611 128.255 45.9321 128.255 46.2515V46.7129Z" fill="white"/>
<path d="M140.534 49.4023H135.322C135.24 49.4023 135.164 49.3877 135.093 49.3584C135.023 49.3291 134.961 49.2896 134.909 49.2397C134.859 49.187 134.819 49.1255 134.79 49.0552C134.761 48.9849 134.746 48.9087 134.746 48.8267V43.1006H135.889V48.2598H140.534V49.4023Z" fill="white"/>
</g>
</svg>
