<svg width="41" height="41" viewBox="0 0 41 41" fill="none" xmlns="http://www.w3.org/2000/svg">
<path d="M20.5255 33.101C26.6239 33.101 31.5676 28.1572 31.5676 22.0588C31.5676 15.9604 26.6239 11.0166 20.5255 11.0166C14.427 11.0166 9.48328 15.9604 9.48328 22.0588C9.48328 28.1572 14.427 33.101 20.5255 33.101Z" fill="white"/>
<path d="M14.2168 21.8177C14.2168 21.8177 19.6866 19.4907 21.5836 18.6713C22.3108 18.3436 24.7769 17.2947 24.7769 17.2947C24.7769 17.2947 25.9151 16.8359 25.8202 17.9503C25.7886 18.4091 25.5357 20.0151 25.2828 21.7522C24.9033 24.2103 24.4923 26.8978 24.4923 26.8978C24.4923 26.8978 24.4291 27.6517 23.8916 27.7828C23.3541 27.9139 22.4688 27.324 22.3108 27.1928C22.1843 27.0945 19.9395 25.6196 19.1175 24.8986C18.8961 24.7019 18.6432 24.3087 19.149 23.8498C20.2873 22.7682 21.6468 21.4244 22.4688 20.5723C22.8483 20.179 23.2276 19.2613 21.6468 20.3756C19.402 21.9816 17.1888 23.4893 17.1888 23.4893C17.1888 23.4893 16.6829 23.817 15.7344 23.522C14.7859 23.2271 13.6793 22.8337 13.6793 22.8337C13.6793 22.8337 12.9205 22.3421 14.2168 21.8177Z" fill="#34AADF"/>
</svg>
