<svg width="41" height="41" viewBox="0 0 41 41" fill="none" xmlns="http://www.w3.org/2000/svg">
<path d="M10.5228 29.9275L11.9728 24.5411C10.8034 22.4428 10.4319 19.9943 10.9264 17.6449C11.4209 15.2954 12.7482 13.2026 14.6648 11.7506C16.5814 10.2985 18.9586 9.58448 21.3604 9.73961C23.7621 9.89474 26.0272 10.9086 27.7401 12.5951C29.4529 14.2816 30.4985 16.5276 30.6851 18.921C30.8717 21.3145 30.1867 23.6947 28.7559 25.6251C27.325 27.5554 25.2442 28.9063 22.8954 29.4299C20.5466 29.9535 18.0872 29.6146 15.9686 28.4755L10.5228 29.9275ZM16.2312 26.4599L16.568 26.6592C18.1025 27.5664 19.8948 27.9419 21.6656 27.727C23.4364 27.5121 25.0862 26.719 26.3579 25.4712C27.6296 24.2234 28.4517 22.5911 28.6962 20.8286C28.9407 19.0661 28.5939 17.2724 27.7097 15.7271C26.8254 14.1817 25.4536 12.9716 23.8078 12.2851C22.1621 11.5987 20.3349 11.4745 18.6111 11.9321C16.8872 12.3896 15.3635 13.403 14.2774 14.8145C13.1913 16.226 12.6037 17.9562 12.6064 19.7355C12.6049 21.2108 13.014 22.6576 13.788 23.9148L13.9992 24.2621L13.1886 27.2684L16.2312 26.4599Z" fill="white"/>
<path fill-rule="evenodd" clip-rule="evenodd" d="M24.4054 21.1182C24.208 20.9594 23.9768 20.8476 23.7295 20.7913C23.4822 20.7351 23.2253 20.7359 22.9783 20.7937C22.6073 20.9474 22.3675 21.5282 22.1278 21.8186C22.0772 21.8882 22.0029 21.937 21.9189 21.9559C21.8348 21.9747 21.7467 21.9624 21.6711 21.9211C20.3127 21.3904 19.1741 20.4172 18.4402 19.1595C18.3776 19.0811 18.3479 18.9814 18.3575 18.8816C18.3671 18.7817 18.4152 18.6895 18.4915 18.6243C18.7589 18.3603 18.9553 18.0332 19.0624 17.6734C19.0862 17.2766 18.995 16.8813 18.7998 16.5347C18.6489 16.0487 18.3617 15.616 17.9721 15.2877C17.7711 15.1976 17.5484 15.1673 17.3306 15.2007C17.1128 15.234 16.9094 15.3295 16.7448 15.4756C16.4591 15.7215 16.2323 16.0282 16.0811 16.3731C15.93 16.718 15.8583 17.0923 15.8714 17.4685C15.8723 17.6797 15.8991 17.89 15.9513 18.0948C16.0839 18.5867 16.2877 19.0566 16.5564 19.4898C16.7503 19.8216 16.9618 20.1428 17.19 20.452C17.9319 21.4678 18.8644 22.3303 19.9358 22.9915C20.4734 23.3275 21.048 23.6007 21.6483 23.8057C22.2718 24.0877 22.9603 24.1959 23.6405 24.1189C24.0281 24.0604 24.3953 23.9077 24.7098 23.6744C25.0244 23.4411 25.2766 23.1342 25.4444 22.7808C25.5429 22.5673 25.5728 22.3287 25.53 22.0976C25.4272 21.625 24.7936 21.346 24.4054 21.1182Z" fill="white"/>
</svg>
